<svg width="785" height="757" viewBox="0 0 785 757" fill="none" xmlns="http://www.w3.org/2000/svg">
<path d="M79.2094 189.539L406.5 0.57735L733.791 189.539V567.461L406.5 756.423L79.2094 567.461V189.539Z" stroke="black"/>
<path d="M406.5 31L707.444 204.75V552.25L406.5 726L105.557 552.25V204.75L406.5 31Z" fill="#3A4F85"/>
<path d="M679 86L722.301 111V161L679 186L635.699 161V111L679 86Z" fill="#8EA7C7"/>
<path d="M757.186 102.89L781.001 116.64V144.14L757.186 157.89L733.37 144.14V116.64L757.186 102.89Z" fill="#6577AB"/>
<path d="M147.767 556.339L147.767 518.296L180.714 499.274L213.66 518.296L213.66 556.339L180.714 575.361L147.767 556.339Z" stroke="white"/>
<path d="M123.673 476.114L140.098 466.631L156.522 476.114L156.522 495.08L140.098 504.562L123.673 495.08L123.673 476.114Z" fill="#6577AB"/>
<path d="M30.1724 515.304L82.4326 485.132L134.693 515.304L134.693 575.649L82.4326 605.821L30.1724 575.649L30.1724 515.304Z" fill="#8EA7C7"/>
</svg>