<svg width="60" height="60" viewBox="0 0 60 60" fill="none" xmlns="http://www.w3.org/2000/svg">
<path d="M26.5 2.02073C28.6658 0.770297 31.3342 0.770297 33.5 2.02073L52.4808 12.9793C54.6466 14.2297 55.9808 16.5406 55.9808 19.0415V40.9585C55.9808 43.4594 54.6466 45.7703 52.4808 47.0207L33.5 57.9793C31.3342 59.2297 28.6658 59.2297 26.5 57.9793L7.51924 47.0207C5.35343 45.7703 4.01924 43.4594 4.01924 40.9585V19.0415C4.01924 16.5406 5.35343 14.2297 7.51924 12.9793L26.5 2.02073Z" fill="#3A4F85"/>
<path d="M31.875 26.375H29.125V23.625H31.875M31.875 37.375H29.125V29.125H31.875M30.5 16.75C28.6943 16.75 26.9063 17.1057 25.2381 17.7967C23.5699 18.4877 22.0541 19.5005 20.7773 20.7773C18.1987 23.3559 16.75 26.8533 16.75 30.5C16.75 34.1467 18.1987 37.6441 20.7773 40.2227C22.0541 41.4995 23.5699 42.5123 25.2381 43.2033C26.9063 43.8943 28.6943 44.25 30.5 44.25C34.1467 44.25 37.6441 42.8013 40.2227 40.2227C42.8013 37.6441 44.25 34.1467 44.25 30.5C44.25 28.6943 43.8943 26.9063 43.2033 25.2381C42.5123 23.5699 41.4995 22.0541 40.2227 20.7773C38.9459 19.5005 37.4301 18.4877 35.7619 17.7967C34.0937 17.1057 32.3057 16.75 30.5 16.75Z" fill="white"/>
</svg>
