<svg width="223" height="401" viewBox="0 0 223 401" fill="none" xmlns="http://www.w3.org/2000/svg">
<path d="M39.1059 2.33012C43.7469 -0.34937 49.4649 -0.349365 54.1059 2.33013L214.568 94.9728C219.209 97.6523 222.068 102.604 222.068 107.963V293.249C222.068 298.608 219.209 303.559 214.568 306.239L54.1059 398.882C49.4649 401.561 43.7469 401.561 39.1059 398.882L-121.356 306.239C-125.997 303.559 -128.856 298.608 -128.856 293.249V107.963C-128.856 102.604 -125.997 97.6523 -121.356 94.9728L39.1059 2.33012Z" fill="#8EA7C7"/>
<path d="M40.4216 68.1113C45.0627 65.4318 50.7806 65.4318 55.4216 68.1113L158.536 127.644C163.177 130.324 166.036 135.276 166.036 140.634V259.7C166.036 265.059 163.177 270.011 158.536 272.691L55.4216 332.223C50.7806 334.903 45.0627 334.903 40.4216 332.223L-62.6923 272.691C-67.3333 270.011 -70.1923 265.059 -70.1923 259.7V140.634C-70.1923 135.276 -67.3333 130.324 -62.6923 127.644L40.4216 68.1113Z" fill="#6577AB"/>
<path d="M36.9131 112.842C41.5541 110.163 47.2721 110.163 51.9131 112.842L116.289 150.01C120.93 152.689 123.789 157.641 123.789 163V237.335C123.789 242.694 120.93 247.646 116.289 250.325L51.9131 287.492C47.2721 290.172 41.5541 290.172 36.9131 287.492L-27.4625 250.325C-32.1035 247.646 -34.9625 242.694 -34.9625 237.335V163C-34.9625 157.641 -32.1035 152.689 -27.4625 150.01L36.9131 112.842Z" fill="#3A4F85"/>
</svg>
