<svg width="33" height="33" viewBox="0 0 33 33" fill="none" xmlns="http://www.w3.org/2000/svg">
<g clip-path="url(#clip0_7_776)">
<path d="M22 16.5C22 14.9818 21.4629 13.6855 20.3887 12.6113C19.3145 11.5371 18.0182 11 16.5 11C14.9818 11 13.6855 11.5371 12.6113 12.6113C11.5371 13.6855 11 14.9818 11 16.5C11 18.0182 11.5371 19.3145 12.6113 20.3887C13.6855 21.4629 14.9818 22 16.5 22C18.0182 22 19.3145 21.4629 20.3887 20.3887C21.4629 19.3145 22 18.0182 22 16.5ZM33 14.1582V18.9277C33 19.0996 32.9427 19.2643 32.8281 19.4219C32.7135 19.5794 32.5703 19.6725 32.3984 19.7012L28.4238 20.3027C28.1517 21.0762 27.8724 21.7279 27.5859 22.2578C28.0872 22.974 28.8535 23.9622 29.8848 25.2227C30.028 25.3945 30.0996 25.5736 30.0996 25.7598C30.0996 25.946 30.0352 26.1107 29.9062 26.2539C29.5195 26.7839 28.8105 27.5573 27.7793 28.5742C26.748 29.5911 26.0749 30.0996 25.7598 30.0996C25.5879 30.0996 25.4017 30.0352 25.2012 29.9062L22.2363 27.5859C21.6061 27.9154 20.9544 28.1875 20.2812 28.4023C20.0521 30.3503 19.8444 31.6823 19.6582 32.3984C19.5579 32.7995 19.3001 33 18.8848 33H14.1152C13.9147 33 13.7393 32.9391 13.5889 32.8174C13.4385 32.6956 13.3561 32.5417 13.3418 32.3555L12.7402 28.4023C12.0384 28.1732 11.3939 27.9082 10.8066 27.6074L7.77734 29.9062C7.63411 30.0352 7.45508 30.0996 7.24023 30.0996C7.03971 30.0996 6.86068 30.0208 6.70312 29.8633C4.89844 28.2305 3.7168 27.0273 3.1582 26.2539C3.05794 26.1107 3.00781 25.946 3.00781 25.7598C3.00781 25.5879 3.0651 25.4232 3.17969 25.2656C3.39453 24.9648 3.75977 24.4886 4.27539 23.8369C4.79102 23.1852 5.17773 22.6803 5.43555 22.3223C5.04883 21.6061 4.75521 20.8971 4.55469 20.1953L0.623047 19.6152C0.436849 19.5866 0.286458 19.4971 0.171875 19.3467C0.0572917 19.1963 0 19.028 0 18.8418V14.0723C0 13.9004 0.0572917 13.7357 0.171875 13.5781C0.286458 13.4206 0.422526 13.3275 0.580078 13.2988L4.57617 12.6973C4.77669 12.0384 5.05599 11.3796 5.41406 10.7207C4.84115 9.9043 4.07487 8.91602 3.11523 7.75586C2.97201 7.58398 2.90039 7.41211 2.90039 7.24023C2.90039 7.09701 2.96484 6.93229 3.09375 6.74609C3.46615 6.23047 4.17155 5.46061 5.20996 4.43652C6.24837 3.41243 6.92513 2.90039 7.24023 2.90039C7.42643 2.90039 7.61263 2.97201 7.79883 3.11523L10.7637 5.41406C11.3939 5.08464 12.0456 4.8125 12.7188 4.59766C12.9479 2.64974 13.1556 1.31771 13.3418 0.601562C13.4421 0.200521 13.6999 0 14.1152 0H18.8848C19.0853 0 19.2607 0.0608724 19.4111 0.182617C19.5615 0.304362 19.6439 0.458333 19.6582 0.644531L20.2598 4.59766C20.9616 4.82682 21.6061 5.0918 22.1934 5.39258L25.2441 3.09375C25.373 2.96484 25.5449 2.90039 25.7598 2.90039C25.946 2.90039 26.125 2.97201 26.2969 3.11523C28.1445 4.81966 29.3262 6.03711 29.8418 6.76758C29.9421 6.88216 29.9922 7.03971 29.9922 7.24023C29.9922 7.41211 29.9349 7.57682 29.8203 7.73438C29.6055 8.03516 29.2402 8.51139 28.7246 9.16309C28.209 9.81478 27.8223 10.3197 27.5645 10.6777C27.9368 11.3939 28.2305 12.0957 28.4453 12.7832L32.377 13.3848C32.5632 13.4134 32.7135 13.5029 32.8281 13.6533C32.9427 13.8037 33 13.972 33 14.1582Z" fill="#6577AB"/>
</g>
<defs>
<clipPath id="clip0_7_776">
<rect width="33" height="33" fill="white"/>
</clipPath>
</defs>
</svg>