<svg width="130" height="52" viewBox="0 0 130 52" fill="none" xmlns="http://www.w3.org/2000/svg">
<path d="M128.011 49.6354C128.011 50.1337 127.902 50.5581 127.683 50.9085C127.465 51.2511 127.151 51.5159 126.742 51.7028C126.341 51.8897 125.865 51.9831 125.315 51.9831C125.033 51.9831 124.762 51.9675 124.501 51.9364C124.247 51.9052 124.015 51.8624 123.803 51.8079C123.592 51.7456 123.405 51.6716 123.243 51.586V50.5815C123.496 50.7061 123.81 50.819 124.184 50.9202C124.564 51.0214 124.956 51.072 125.357 51.072C125.731 51.072 126.045 51.0175 126.298 50.9085C126.552 50.7995 126.742 50.6438 126.869 50.4413C126.996 50.2389 127.06 50.0014 127.06 49.7288C127.06 49.4563 127.007 49.2266 126.901 49.0397C126.795 48.8528 126.612 48.6815 126.351 48.5257C126.097 48.3622 125.741 48.1909 125.283 48.0118C124.959 47.8794 124.674 47.7393 124.427 47.5913C124.187 47.4356 123.986 47.2604 123.824 47.0657C123.662 46.871 123.539 46.6491 123.454 46.3999C123.377 46.1508 123.338 45.8626 123.338 45.5356C123.338 45.0917 123.44 44.7141 123.644 44.4026C123.849 44.0834 124.131 43.8381 124.49 43.6668C124.857 43.4954 125.276 43.4098 125.748 43.4098C126.164 43.4098 126.545 43.4526 126.89 43.5383C127.236 43.6239 127.549 43.7368 127.831 43.877L127.535 44.7764C127.275 44.6518 126.989 44.5467 126.679 44.461C126.376 44.3754 126.059 44.3325 125.727 44.3325C125.41 44.3325 125.146 44.3831 124.934 44.4844C124.723 44.5856 124.564 44.7297 124.459 44.9165C124.353 45.0956 124.3 45.3059 124.3 45.5473C124.3 45.8276 124.353 46.0612 124.459 46.2481C124.564 46.435 124.737 46.6024 124.977 46.7503C125.216 46.8983 125.541 47.0579 125.949 47.2292C126.393 47.4083 126.767 47.603 127.07 47.8133C127.38 48.0157 127.613 48.261 127.768 48.5491C127.93 48.8372 128.011 49.1993 128.011 49.6354Z" fill="#1A2857"/>
<path d="M109.776 51.8663H108.825V44.4494H106.467V43.5266H112.123V44.4494H109.776V51.8663Z" fill="#1A2857"/>
<path d="M93.4741 44.3325C93.0724 44.3325 92.7094 44.4104 92.3851 44.5661C92.0609 44.7141 91.786 44.936 91.5604 45.2319C91.3349 45.52 91.1622 45.8743 91.0423 46.2948C90.9225 46.7075 90.8626 47.1747 90.8626 47.6964C90.8626 48.3817 90.9578 48.9774 91.1481 49.4835C91.3454 49.9897 91.6344 50.379 92.0151 50.6516C92.4027 50.9241 92.8856 51.0604 93.4636 51.0604C93.7949 51.0604 94.1085 51.0292 94.4046 50.9669C94.7006 50.9046 94.9896 50.8268 95.2716 50.7333V51.6444C94.9896 51.7612 94.6971 51.8468 94.394 51.9013C94.098 51.9559 93.742 51.9831 93.3261 51.9831C92.5578 51.9831 91.9164 51.8079 91.4018 51.4575C90.8873 51.1071 90.4996 50.6087 90.2388 49.9624C89.985 49.3161 89.8582 48.5569 89.8582 47.6848C89.8582 47.054 89.9357 46.4778 90.0908 45.9561C90.2529 45.4344 90.4855 44.9827 90.7886 44.6012C91.0987 44.2196 91.4794 43.9276 91.9305 43.7252C92.3816 43.5149 92.8997 43.4098 93.4847 43.4098C93.8724 43.4098 94.246 43.4526 94.6055 43.5383C94.9649 43.6239 95.2857 43.7446 95.5676 43.9004L95.187 44.7881C94.9544 44.6713 94.6936 44.5661 94.4046 44.4727C94.1226 44.3793 93.8125 44.3325 93.4741 44.3325Z" fill="#1A2857"/>
<path d="M77.7791 48.9229C77.7791 49.4991 77.6733 50.0208 77.4619 50.488C77.2504 50.9475 76.9262 51.3135 76.4891 51.586C76.0592 51.8507 75.5094 51.9831 74.8397 51.9831C73.9023 51.9831 73.1868 51.7028 72.6934 51.1421C72.207 50.5737 71.9639 49.8262 71.9639 48.8995V43.5266H72.9154V48.9346C72.9154 49.612 73.0776 50.1376 73.4018 50.5114C73.7331 50.8852 74.23 51.0721 74.8926 51.0721C75.3508 51.0721 75.7208 50.9825 76.0028 50.8034C76.2918 50.6165 76.5032 50.3635 76.6372 50.0442C76.7711 49.7172 76.8381 49.3434 76.8381 48.9229V43.5266H77.7791V48.9229Z" fill="#1A2857"/>
<path d="M59.895 47.6147C59.895 48.5491 59.7364 49.3317 59.4192 49.9624C59.109 50.5932 58.6614 51.0682 58.0764 51.3874C57.4914 51.7067 56.783 51.8663 55.9512 51.8663H53.8472V43.5266H56.1732C56.9345 43.5266 57.5936 43.6823 58.1504 43.9938C58.7073 44.3053 59.1372 44.7647 59.4403 45.3721C59.7434 45.9717 59.895 46.7192 59.895 47.6147ZM58.8905 47.6497C58.8905 46.91 58.7777 46.3026 58.5522 45.8276C58.3337 45.3526 58.0094 45.0022 57.5795 44.7764C57.1565 44.5428 56.642 44.426 56.0358 44.426H54.7987V50.9669H55.8243C56.8464 50.9669 57.6112 50.6905 58.1187 50.1376C58.6332 49.577 58.8905 48.7477 58.8905 47.6497Z" fill="#1A2857"/>
<path d="M41.7067 47.6848C41.7067 48.3311 41.6327 48.919 41.4846 49.4485C41.3366 49.9702 41.1146 50.4219 40.8185 50.8034C40.5295 51.185 40.1665 51.477 39.7295 51.6794C39.2995 51.8819 38.7991 51.9831 38.2281 51.9831C37.636 51.9831 37.1215 51.8819 36.6845 51.6794C36.2474 51.4692 35.8844 51.1772 35.5954 50.8034C35.3064 50.4219 35.0915 49.9663 34.9505 49.4368C34.8095 48.9073 34.739 48.3194 34.739 47.6731C34.739 46.8166 34.8659 46.069 35.1196 45.4305C35.3734 44.792 35.7576 44.2936 36.2721 43.9354C36.7937 43.5772 37.4492 43.3981 38.2387 43.3981C38.9929 43.3981 39.6273 43.5772 40.1419 43.9354C40.6564 44.2858 41.0441 44.7842 41.3049 45.4305C41.5727 46.069 41.7067 46.8205 41.7067 47.6848ZM35.7435 47.6848C35.7435 48.3856 35.8316 48.9891 36.0078 49.4952C36.184 50.0014 36.4554 50.3907 36.8219 50.6633C37.1955 50.9358 37.6642 51.0721 38.2281 51.0721C38.7991 51.0721 39.2643 50.9358 39.6238 50.6633C39.9903 50.3907 40.2617 50.0014 40.4379 49.4952C40.6141 48.9891 40.7022 48.3856 40.7022 47.6848C40.7022 46.6336 40.5049 45.8121 40.1101 45.2203C39.7154 44.6207 39.0916 44.3209 38.2387 44.3209C37.6678 44.3209 37.1955 44.4571 36.8219 44.7297C36.4554 44.9944 36.184 45.3799 36.0078 45.886C35.8316 46.3844 35.7435 46.984 35.7435 47.6848Z" fill="#1A2857"/>
<path d="M20.1581 43.5266C20.7854 43.5266 21.3 43.6162 21.7018 43.7953C22.1106 43.9666 22.4137 44.2274 22.611 44.5778C22.8084 44.9282 22.9071 45.3682 22.9071 45.8977C22.9071 46.3416 22.8331 46.7114 22.6851 47.0073C22.537 47.3032 22.3467 47.5407 22.1141 47.7198C21.8886 47.8911 21.6489 48.0274 21.3951 48.1286L23.4675 51.8663H22.3573L20.5281 48.4206H19.0268V51.8663H18.0752V43.5266H20.1581ZM20.1052 44.4377H19.0268V47.5329H20.1581C20.5669 47.5329 20.9017 47.4745 21.1625 47.3577C21.4233 47.2331 21.6137 47.0541 21.7335 46.8204C21.8604 46.5868 21.9238 46.2948 21.9238 45.9444C21.9238 45.5784 21.8568 45.2864 21.7229 45.0684C21.596 44.8504 21.3987 44.6907 21.1308 44.5895C20.863 44.4883 20.5211 44.4377 20.1052 44.4377Z" fill="#1A2857"/>
<path d="M3.20437 43.5265C4.19119 43.5265 4.91015 43.7406 5.36127 44.1689C5.81239 44.5972 6.03795 45.2007 6.03795 45.9793C6.03795 46.322 5.98508 46.6529 5.87935 46.9722C5.78067 47.2836 5.61503 47.564 5.38242 47.8131C5.14981 48.0623 4.83967 48.2609 4.45199 48.4088C4.06431 48.549 3.58852 48.6191 3.02462 48.6191H2.15763V51.8662H1.20605V43.5265H3.20437ZM3.11978 44.4259H2.15763V47.7197H2.91889C3.39821 47.7197 3.79646 47.6652 4.11365 47.5562C4.43084 47.4394 4.66697 47.2564 4.82205 47.0072C4.97712 46.758 5.05465 46.431 5.05465 46.0261C5.05465 45.4888 4.89958 45.0878 4.58944 44.823C4.27929 44.5582 3.78941 44.4259 3.11978 44.4259Z" fill="#1A2857"/>
<path d="M115.215 37.4903V23.9939C115.215 22.325 115.279 20.6198 115.406 18.8783C115.575 17.1005 115.744 15.613 115.913 14.4158C116.082 13.2185 116.188 12.4566 116.23 12.1301H115.977L107.92 37.4903H96.9452L88.8251 12.1845H88.5713C88.6136 12.511 88.7193 13.2729 88.8885 14.4702C89.1 15.6312 89.2903 17.1005 89.4595 18.8783C89.6286 20.6198 89.7132 22.325 89.7132 23.9939V37.4903H76.8352V0.048584H96.628L103.226 21.6538H103.479L110.014 0.048584H129.108V37.4903H115.215Z" fill="#1A2857"/>
<path fill-rule="evenodd" clip-rule="evenodd" d="M9.69623 0.0773315L19.3925 24.9834L14.1898 38.3471L9.69623 26.8049L5.20269 38.3471L0 24.9834L9.69623 0.0773315ZM10.4054 24.9834L14.1898 34.7041L17.9742 24.9834L14.1898 15.2626L10.4054 24.9834ZM13.4807 13.4411L9.69623 23.1619L5.9118 13.4411L9.69623 3.72031L13.4807 13.4411ZM5.20267 15.2626L8.9871 24.9834L5.20269 34.7041L1.41826 24.9834L5.20267 15.2626Z" fill="#BA001E"/>
<path d="M75.3836 33.5919L75.7778 33.8542C75.4841 34.697 75.0204 35.3569 74.3866 35.834C73.7529 36.2951 73.0495 36.5257 72.2766 36.5257C71.7975 36.5257 71.3801 36.4541 71.0246 36.311C70.669 36.1679 70.3058 35.9373 69.9348 35.6193C69.5638 35.2854 69.1155 34.856 68.59 34.3313C67.8016 35.1423 67.0597 35.7147 66.3641 36.0486C65.6685 36.3667 64.8647 36.5257 63.9527 36.5257C62.6542 36.5257 61.6572 36.2076 60.9616 35.5716C60.266 34.9355 59.9182 34.0133 59.9182 32.8048C59.9182 31.7235 60.2506 30.7773 60.9152 29.9664C61.5799 29.1554 62.662 28.3126 64.1614 27.4381C63.7285 26.5953 63.4117 25.8877 63.2107 25.3152C63.0252 24.7428 62.9325 24.1385 62.9325 23.5025C62.9325 22.5802 63.2648 21.8329 63.9295 21.2604C64.5942 20.688 65.4753 20.4017 66.5728 20.4017C67.4229 20.4017 68.1494 20.6403 68.7523 21.1173C69.3551 21.5943 69.6566 22.3178 69.6566 23.2878C69.6566 24.1147 69.3938 24.8303 68.8682 25.4345C68.3581 26.0388 67.4538 26.643 66.1554 27.2473C66.5418 27.8992 66.8974 28.4955 67.222 29.0361C67.5466 29.5768 67.8789 30.1095 68.219 30.6342C68.5745 31.1431 68.9687 31.6917 69.4015 32.28C70.0662 31.2146 70.5377 30.3878 70.8159 29.7994C71.0941 29.1952 71.2333 28.6466 71.2333 28.1536C71.2333 27.8038 71.1251 27.5573 70.9086 27.4142C70.7077 27.2552 70.3367 27.1757 69.7957 27.1757V26.4363H74.8967V27.1757C74.3248 27.1757 73.8765 27.2711 73.5519 27.4619C73.2428 27.6527 72.9568 27.9867 72.694 28.4637C72.3849 29.0043 72.0989 29.4973 71.8361 29.9425C71.5888 30.3719 71.3183 30.8171 71.0246 31.2782C70.7309 31.7235 70.3599 32.2562 69.9116 32.8763C70.5145 33.5283 71.04 34.0371 71.4883 34.4028C71.952 34.7527 72.4931 34.9276 73.1114 34.9276C73.5906 34.9276 74.0079 34.8242 74.3634 34.6175C74.7344 34.4108 75.0745 34.0689 75.3836 33.5919ZM68.0335 33.735C67.6162 33.1784 67.2297 32.6378 66.8742 32.1131C66.5187 31.5724 66.1554 30.992 65.7844 30.3719C65.4134 29.7517 64.9961 29.0202 64.5323 28.1775C63.6512 28.7499 63.0175 29.3542 62.631 29.9902C62.2446 30.6263 62.0514 31.3657 62.0514 32.2085C62.0514 33.2102 62.291 33.9417 62.7702 34.4028C63.2493 34.8481 63.9218 35.0707 64.7874 35.0707C65.3284 35.0707 65.8462 34.9912 66.3409 34.8322C66.851 34.6732 67.4152 34.3074 68.0335 33.735ZM68.3349 23.2401C68.3349 22.6359 68.1804 22.135 67.8712 21.7374C67.562 21.324 67.1138 21.1173 66.5264 21.1173C65.9544 21.1173 65.4984 21.2922 65.1584 21.642C64.8338 21.9919 64.6715 22.453 64.6715 23.0255C64.6715 23.5661 64.7565 24.0908 64.9265 24.5997C65.0965 25.0926 65.3902 25.7605 65.8076 26.6032C66.7814 26.1103 67.4461 25.6015 67.8016 25.0767C68.1572 24.5361 68.3349 23.9239 68.3349 23.2401Z" fill="#1A2857"/>
<path d="M60.0029 24.4519C60.0029 29.1321 58.4381 32.5788 55.3085 34.7919C52.2211 37.0051 47.7593 38.1116 41.923 38.1116C36.0866 38.1116 31.6037 37.0051 28.474 34.7919C25.3867 32.5788 23.843 29.1321 23.843 24.4519V21.3269H36.9748V24.3975C36.9748 26.1027 37.3343 27.3181 38.0532 28.0437C38.8145 28.7693 39.9564 29.1321 41.4789 29.1321C43.0014 29.1321 44.1222 28.7693 44.8411 28.0437C45.6024 27.3181 45.983 26.1027 45.983 24.3975V0.0168457H60.0029V24.4519Z" fill="#1A2857"/>
</svg>
